<svg width="37" height="39" viewBox="0 0 37 39" fill="none" xmlns="http://www.w3.org/2000/svg">
<path d="M26.4449 1.8C26.4449 1.32261 26.6345 0.864773 26.9721 0.527208C27.3097 0.189642 27.7675 0 28.2449 0H34.2449C34.7223 0 35.1801 0.189642 35.5177 0.527208C35.8553 0.864773 36.0449 1.32261 36.0449 1.8V7.8C36.0449 8.27739 35.8553 8.73523 35.5177 9.07279C35.1801 9.41036 34.7223 9.6 34.2449 9.6C33.7675 9.6 33.3097 9.41036 32.9721 9.07279C32.6345 8.73523 32.4449 8.27739 32.4449 7.8V6.144L21.7169 16.872C21.3794 17.2091 20.9219 17.3984 20.4449 17.3984C19.9679 17.3984 19.5104 17.2091 19.1729 16.872L13.2449 10.944L3.1169 21.072C2.95211 21.2488 2.75339 21.3907 2.53259 21.4891C2.31179 21.5875 2.07344 21.6404 1.83175 21.6446C1.59007 21.6489 1.35 21.6044 1.12587 21.5139C0.901734 21.4234 0.698133 21.2886 0.527208 21.1177C0.356283 20.9468 0.221536 20.7432 0.131005 20.519C0.040475 20.2949 -0.00398415 20.0548 0.000280131 19.8131C0.00454441 19.5715 0.0574452 19.3331 0.155826 19.1123C0.254207 18.8915 0.396052 18.6928 0.5729 18.528L11.9729 7.128C12.3104 6.79092 12.7679 6.60158 13.2449 6.60158C13.7219 6.60158 14.1794 6.79092 14.5169 7.128L20.4449 13.056L29.9009 3.6H28.2449C27.7675 3.6 27.3097 3.41036 26.9721 3.07279C26.6345 2.73523 26.4449 2.27739 26.4449 1.8V1.8ZM1.8449 28.8C2.32229 28.8 2.78013 28.9896 3.11769 29.3272C3.45526 29.6648 3.6449 30.1226 3.6449 30.6V36.6C3.6449 37.0774 3.45526 37.5352 3.11769 37.8728C2.78013 38.2104 2.32229 38.4 1.8449 38.4C1.36751 38.4 0.909673 38.2104 0.572108 37.8728C0.234542 37.5352 0.0449001 37.0774 0.0449001 36.6V30.6C0.0449001 30.1226 0.234542 29.6648 0.572108 29.3272C0.909673 28.9896 1.36751 28.8 1.8449 28.8V28.8ZM13.2449 23.4C13.2449 22.9226 13.0553 22.4648 12.7177 22.1272C12.3801 21.7896 11.9223 21.6 11.4449 21.6C10.9675 21.6 10.5097 21.7896 10.1721 22.1272C9.83454 22.4648 9.6449 22.9226 9.6449 23.4V36.6C9.6449 37.0774 9.83454 37.5352 10.1721 37.8728C10.5097 38.2104 10.9675 38.4 11.4449 38.4C11.9223 38.4 12.3801 38.2104 12.7177 37.8728C13.0553 37.5352 13.2449 37.0774 13.2449 36.6V23.4ZM21.0449 26.4C21.5223 26.4 21.9801 26.5896 22.3177 26.9272C22.6553 27.2648 22.8449 27.7226 22.8449 28.2V36.6C22.8449 37.0774 22.6553 37.5352 22.3177 37.8728C21.9801 38.2104 21.5223 38.4 21.0449 38.4C20.5675 38.4 20.1097 38.2104 19.7721 37.8728C19.4345 37.5352 19.2449 37.0774 19.2449 36.6V28.2C19.2449 27.7226 19.4345 27.2648 19.7721 26.9272C20.1097 26.5896 20.5675 26.4 21.0449 26.4ZM32.4449 18.6C32.4449 18.1226 32.2553 17.6648 31.9177 17.3272C31.5801 16.9896 31.1223 16.8 30.6449 16.8C30.1675 16.8 29.7097 16.9896 29.3721 17.3272C29.0345 17.6648 28.8449 18.1226 28.8449 18.6V36.6C28.8449 37.0774 29.0345 37.5352 29.3721 37.8728C29.7097 38.2104 30.1675 38.4 30.6449 38.4C31.1223 38.4 31.5801 38.2104 31.9177 37.8728C32.2553 37.5352 32.4449 37.0774 32.4449 36.6V18.6Z" fill="#00FFC2"/>
</svg>
