<svg width="44" height="44" viewBox="0 0 44 44" fill="none" xmlns="http://www.w3.org/2000/svg">
<path d="M26.358 34H21.991L12.991 29.04L2 33.082L5.002 39.026L12.074 36.073C18.691 40.024 22.718 42 24.156 42C25.594 42 31.539 39.333 41.991 34" stroke="#54ADFF" stroke-width="4" stroke-linecap="round" stroke-linejoin="round"/>
<path d="M26.9832 24.9879V20.3179C28.0832 19.8609 29.5262 19.1929 30.3552 18.3639C31.6139 17.1052 32.471 15.5016 32.8183 13.7558C33.1655 12.0099 32.9873 10.2004 32.3061 8.55582C31.6249 6.9113 30.4714 5.50569 28.9913 4.51677C27.5113 3.52784 25.7712 3 23.9912 3C22.2112 3 20.4711 3.52784 18.9911 4.51677C17.5111 5.50569 16.3575 6.9113 15.6763 8.55582C14.9951 10.2004 14.8169 12.0099 15.1641 13.7558C15.5114 15.5016 16.3686 17.1052 17.6272 18.3639C18.4562 19.1929 19.8912 19.8609 20.9912 20.3169C20.9972 20.6519 20.9972 22.2089 20.9912 24.9869H26.9832V24.9879Z" stroke="#54ADFF" stroke-width="4" stroke-linejoin="round"/>
<path d="M9.99121 19L10.9912 18" stroke="#54ADFF" stroke-width="4" stroke-linecap="round"/>
<path d="M37.9912 19L36.9912 18" stroke="#54ADFF" stroke-width="4" stroke-linecap="round"/>
<path d="M12.9912 3L11.9912 2" stroke="#54ADFF" stroke-width="4" stroke-linecap="round"/>
<path d="M34.9912 3L35.9912 2" stroke="#54ADFF" stroke-width="4" stroke-linecap="round"/>
<path d="M38.9912 10H37.9912" stroke="#54ADFF" stroke-width="4" stroke-linecap="round"/>
<path d="M9.99121 10H8.99121" stroke="#54ADFF" stroke-width="4" stroke-linecap="round"/>
</svg>
